<svg width="27" height="41" viewBox="0 0 27 41" fill="none" xmlns="http://www.w3.org/2000/svg">
<path d="M26.3096 16.2446C26.1801 16.0767 26.0138 15.9407 25.8235 15.8472C25.6332 15.7537 25.4239 15.705 25.2119 15.7051H17.6677V14.0585C17.6677 13.2805 17.9761 12.5343 18.5254 11.9833C19.0746 11.4323 19.8199 11.1215 20.5979 11.119H24.3189C24.6889 11.119 25.0438 10.972 25.3055 10.7103C25.5672 10.4486 25.7142 10.0937 25.7142 9.72366V2.24459C25.7142 1.87452 25.5672 1.51961 25.3055 1.25793C25.0438 0.996253 24.6889 0.849243 24.3189 0.849243H17.9375C14.9999 0.851707 12.1833 2.01975 10.1061 4.09695C8.0289 6.17414 6.86086 8.99072 6.85839 11.9283V15.5748H1.52816C1.15809 15.5748 0.803178 15.7218 0.5415 15.9835C0.279821 16.2452 0.132812 16.6001 0.132812 16.9702V24.5702C0.132812 24.9402 0.279821 25.2952 0.5415 25.5568C0.803178 25.8185 1.15809 25.9655 1.52816 25.9655H6.85839V39.4539C6.85839 39.824 7.0054 40.1789 7.26708 40.4406C7.52876 40.7022 7.88367 40.8492 8.25374 40.8492H16.7468C17.1168 40.8492 17.4717 40.7022 17.7334 40.4406C17.9951 40.1789 18.1421 39.824 18.1421 39.4539V25.9655H23.3514C23.6622 25.9642 23.9637 25.8592 24.2081 25.6671C24.4524 25.475 24.6257 25.2068 24.7003 24.9051L26.5607 17.4632C26.6153 17.2544 26.621 17.0359 26.5774 16.8246C26.5339 16.6132 26.4422 16.4148 26.3096 16.2446ZM22.2537 23.1748H16.7468C16.3767 23.1748 16.0218 23.3218 15.7601 23.5835C15.4984 23.8452 15.3514 24.2001 15.3514 24.5702V38.0585H9.64909V24.5702C9.64909 24.2001 9.50208 23.8452 9.2404 23.5835C8.97872 23.3218 8.62381 23.1748 8.25374 23.1748H2.92351V18.3655H8.25374C8.62381 18.3655 8.97872 18.2185 9.2404 17.9568C9.50208 17.6952 9.64909 17.3402 9.64909 16.9702V11.9283C9.65155 9.73086 10.5256 7.62411 12.0794 6.07027C13.6333 4.51643 15.74 3.6424 17.9375 3.63994H22.8863V8.2911H20.5979C19.0798 8.29357 17.6247 8.89838 16.5521 9.97274C15.4794 11.0471 14.877 12.5032 14.877 14.0213V17.1283C14.877 17.4984 15.024 17.8533 15.2857 18.115C15.5474 18.3767 15.9023 18.5237 16.2723 18.5237H23.4258L22.2537 23.1748Z" fill="black"/>
</svg>
