<svg width="41" height="41" viewBox="0 0 41 41" fill="none" xmlns="http://www.w3.org/2000/svg">
<path fill-rule="evenodd" clip-rule="evenodd" d="M11.8872 0.969243C14.0206 0.871461 14.7006 0.849243 20.1328 0.849243C25.5661 0.849243 26.245 0.87257 28.3772 0.969243C30.5072 1.06592 31.9617 1.40481 33.2339 1.89924C34.5683 2.40163 35.777 3.18877 36.7761 4.20592C37.7934 5.20488 38.5806 6.41372 39.0828 7.74813C39.5772 9.02035 39.915 10.4748 40.0128 12.6037C40.1106 14.737 40.1328 15.417 40.1328 20.8492C40.1328 26.2814 40.1095 26.9614 40.0128 29.0949C39.9161 31.2236 39.5772 32.6782 39.0828 33.9503C38.5717 35.2649 37.8872 36.3814 36.7761 37.4925C35.7772 38.5098 34.5683 39.2971 33.2339 39.7992C31.9617 40.2936 30.5072 40.6314 28.3785 40.7292C26.245 40.8271 25.565 40.8492 20.1328 40.8492C14.7006 40.8492 14.0206 40.826 11.8872 40.7292C9.75838 40.6325 8.30392 40.2936 7.0317 39.7992C5.71725 39.2882 4.60059 38.6036 3.48949 37.4925C2.47216 36.4936 1.68496 35.2847 1.18281 33.9503C0.688376 32.6782 0.350594 31.2236 0.252812 29.0949C0.155031 26.9614 0.132812 26.2825 0.132812 20.8492C0.132812 15.4159 0.15614 14.737 0.252812 12.6048C0.349485 10.4748 0.688376 9.02035 1.18281 7.74813C1.68519 6.41381 2.47234 5.20503 3.48949 4.20592C4.48843 3.18859 5.69727 2.40139 7.0317 1.89924C8.30392 1.40481 9.75838 1.06702 11.8872 0.969243ZM28.215 4.56924C26.1061 4.47368 25.4728 4.45257 20.1328 4.45257C14.7928 4.45257 14.1595 4.47368 12.0506 4.56924C10.1006 4.65813 9.0417 4.98368 8.33725 5.25813C7.40392 5.62035 6.73725 6.05368 6.03725 6.75368C5.33838 7.45368 4.90392 8.12035 4.5417 9.05368C4.26725 9.75813 3.9417 10.817 3.85281 12.767C3.75725 14.8759 3.73614 15.5092 3.73614 20.8492C3.73614 26.1892 3.75725 26.8225 3.85281 28.9314C3.9417 30.8814 4.26725 31.9403 4.5417 32.6449C4.8621 33.5136 5.37316 34.2994 6.03725 34.9449C6.68252 35.6089 7.46847 36.12 8.33725 36.4403C9.0417 36.7149 10.1006 37.0403 12.0506 37.1292C14.1595 37.2249 14.7917 37.246 20.1328 37.246C25.4739 37.246 26.1061 37.2249 28.215 37.1292C30.165 37.0403 31.2239 36.7149 31.9284 36.4403C32.8617 36.0782 33.5285 35.6449 34.2285 34.9449C34.8924 34.2996 35.4035 33.5136 35.7239 32.6449C35.9985 31.9403 36.3239 30.8814 36.4128 28.9314C36.5084 26.8225 36.5295 26.1892 36.5295 20.8492C36.5295 15.5092 36.5084 14.8759 36.4128 12.767C36.3239 10.817 35.9985 9.75813 35.7239 9.05368C35.3617 8.12035 34.9284 7.45368 34.2285 6.75368C33.5285 6.05481 32.8617 5.62035 31.9284 5.25813C31.2239 4.98368 30.165 4.65813 28.215 4.56924ZM17.5792 27.0145C18.3888 27.35 19.2564 27.5225 20.1328 27.5225C21.9028 27.5225 23.6001 26.8194 24.8515 25.568C26.1032 24.3165 26.8063 22.6191 26.8063 20.8492C26.8063 19.0794 26.1032 17.382 24.8515 16.1305C23.6001 14.879 21.9028 14.1759 20.1328 14.1759C19.2564 14.1759 18.3888 14.3485 17.5792 14.6839C16.7694 15.0192 16.0338 15.5108 15.4141 16.1305C14.7944 16.7502 14.3029 17.4858 13.9675 18.2954C13.6321 19.1051 13.4595 19.9729 13.4595 20.8492C13.4595 21.7256 13.6321 22.5934 13.9675 23.4031C14.3029 24.2127 14.7944 24.9483 15.4141 25.568C16.0338 26.1876 16.7694 26.6792 17.5792 27.0145ZM12.8638 13.5802C14.7917 11.6523 17.4064 10.5692 20.1328 10.5692C22.8594 10.5692 25.4741 11.6523 27.4019 13.5802C29.3297 15.508 30.4128 18.1229 30.4128 20.8492C30.4128 23.5756 29.3297 26.1903 27.4019 28.1183C25.4741 30.0462 22.8594 31.1292 20.1328 31.1292C17.4064 31.1292 14.7917 30.0462 12.8638 28.1183C10.9359 26.1903 9.85287 23.5756 9.85287 20.8492C9.85287 18.1229 10.9359 15.508 12.8638 13.5802ZM32.6923 12.1008C33.1479 11.6451 33.4039 11.027 33.4039 10.3826C33.4039 9.73808 33.1479 9.12001 32.6923 8.6643C32.2365 8.20859 31.6185 7.95257 30.9739 7.95257C30.3295 7.95257 29.7114 8.20859 29.2557 8.6643C28.7999 9.12001 28.5439 9.73808 28.5439 10.3826C28.5439 11.027 28.7999 11.6451 29.2557 12.1008C29.7114 12.5566 30.3295 12.8126 30.9739 12.8126C31.6185 12.8126 32.2365 12.5566 32.6923 12.1008Z" fill="black"/>
</svg>
