<svg width="84" height="84" viewBox="0 0 84 84" fill="none" xmlns="http://www.w3.org/2000/svg">
<path id="bone" d="M68.3333 13.4722C68.3333 14.3232 68.2363 15.1516 68.0533 15.9469C68.8486 15.7635 69.6768 15.6667 70.5278 15.6667C76.5875 15.6667 81.5 20.5791 81.5 26.6389C81.5 32.6987 76.5875 37.6111 70.5278 37.6111C67.197 37.6111 63.6859 36.8913 60.7028 38.3721C57.2229 40.0996 54.026 42.388 51.2487 45.1657L45.1661 51.2483C42.3884 54.026 40.0996 57.2229 38.3721 60.7032C36.8913 63.6864 37.6111 67.1975 37.6111 70.5278C37.6111 76.5875 32.6987 81.5 26.6389 81.5C20.5791 81.5 15.6667 76.5875 15.6667 70.5278C15.6667 69.6768 15.7635 68.8486 15.9469 68.0533C15.1516 68.2363 14.3232 68.3333 13.4722 68.3333C7.41244 68.3333 2.5 63.4208 2.5 57.3611C2.5 51.3014 7.41244 46.3889 13.4722 46.3889C16.8031 46.3889 20.3148 47.1091 23.2983 45.6279C26.7781 43.9004 29.9749 41.612 32.7524 38.8343L38.8347 32.7519C41.612 29.9748 43.9004 26.7784 45.6279 23.2989C47.1091 20.3153 46.3889 16.8033 46.3889 13.4722C46.3889 7.41244 51.3014 2.5 57.3611 2.5C63.4208 2.5 68.3333 7.41244 68.3333 13.4722Z" stroke="#AAAAFF" stroke-width="5" stroke-linecap="round" stroke-linejoin="round"/>
</svg>
