<svg width="92" height="80" viewBox="0 0 92 80" fill="none" xmlns="http://www.w3.org/2000/svg">
<path d="M90.5982 14.073C90.1733 13.6443 89.6675 13.3043 89.11 13.0728C88.5526 12.8413 87.9547 12.723 87.351 12.7247H84.1092V5.08425C84.1079 3.86885 83.6244 2.70362 82.765 1.8442C81.9056 0.984785 80.7404 0.501365 79.525 0.5H13.5552C9.9773 0.500051 6.54597 1.92138 4.01602 4.45133C1.48608 6.98127 0.0647479 10.4126 0.0646973 13.9905V66.4698C0.0647479 70.0477 1.48608 73.479 4.01602 76.009C6.54597 78.5389 9.9773 79.9602 13.5552 79.9603H87.1705C88.3831 79.9579 89.5455 79.4762 90.4043 78.6202C91.2631 77.7642 91.7485 76.6033 91.7548 75.3907L91.9351 17.3246C91.9389 16.721 91.8227 16.1228 91.5932 15.5645C91.3636 15.0063 91.0254 14.4993 90.5982 14.073ZM85.6474 73.848H13.5552C11.5984 73.848 9.72171 73.0706 8.33804 71.6869C6.95437 70.3033 6.17703 68.4266 6.17703 66.4698V13.9905C6.17703 12.0337 6.95437 10.157 8.33804 8.77334C9.72171 7.38967 11.5984 6.61233 13.5552 6.61233H77.9969V12.7247H13.8174V18.837H85.8182L85.6474 73.848Z" fill="#AAAAFF"/>
<path d="M77.9969 41.7582H71.8845V47.8706H77.9969V41.7582Z" fill="#AAAAFF"/>
</svg>
