<svg width="82" height="82" viewBox="0 0 82 82" fill="none" xmlns="http://www.w3.org/2000/svg">
<g id="doghouse">
<path id="Vector" d="M79.8906 27.1566L41.7493 1.72454C41.5269 1.57806 41.2664 1.5 41.0001 1.5C40.7338 1.5 40.4733 1.57806 40.2509 1.72454L2.10957 27.1566C1.92218 27.28 1.76818 27.4478 1.66124 27.645C1.55431 27.8423 1.49774 28.0629 1.49658 28.2872V79.1378C1.49658 79.4991 1.6401 79.8456 1.89556 80.101C2.15102 80.3565 2.4975 80.5 2.85877 80.5H24.5448C24.9061 80.5 25.2526 80.3565 25.5081 80.101C25.7635 79.8456 25.907 79.4991 25.907 79.1378V55.0951C26.738 35.0573 55.2622 35.0573 56.0932 55.0951V79.1378C56.0932 79.4991 56.2367 79.8456 56.4921 80.101C56.7476 80.3565 57.0941 80.5 57.4554 80.5H79.1414C79.5027 80.5 79.8492 80.3565 80.1046 80.101C80.3601 79.8456 80.5036 79.4991 80.5036 79.1378V28.2872C80.5025 28.0629 80.4459 27.8423 80.339 27.645C80.232 27.4478 80.078 27.28 79.8906 27.1566ZM41.0001 37.2641C36.2745 37.2713 31.7447 39.1527 28.4044 42.4955C25.0642 45.8383 23.1863 50.3695 23.1827 55.0951V77.7756H11.8765V32.4283L41.0001 13.0035L70.1237 32.4283V77.7756H58.8176V55.0951C58.8139 50.3695 56.936 45.8383 53.5958 42.4955C50.2555 39.1527 45.7257 37.2713 41.0001 37.2641ZM77.7792 77.7756H72.8481V31.6927C72.8469 31.4684 72.7904 31.2478 72.6834 31.0505C72.5765 30.8533 72.4225 30.6855 72.2351 30.5621L41.7493 10.2382C41.5269 10.0918 41.2664 10.0137 41.0001 10.0137C40.7338 10.0137 40.4733 10.0918 40.2509 10.2382L9.76508 30.5621C9.57769 30.6855 9.42369 30.8533 9.31675 31.0505C9.20981 31.2478 9.15325 31.4684 9.15209 31.6927V77.7756H4.22096V29.0228L41.0001 4.50341L77.7792 29.0228V77.7756Z" fill="#AAAAFF" stroke="#AAAAFF" stroke-width="1.5"/>
<path id="Vector_2" d="M50.6307 21.7351C49.7223 21.7393 48.8384 22.0299 48.1047 22.5655C47.3711 23.1011 46.825 23.8544 46.5441 24.7183H35.4695C32.7452 18.1661 23.7138 23.6285 28.2227 29.0637C23.7138 34.5124 32.8133 39.9612 35.4695 33.4091H46.5305C49.2549 39.9612 58.2862 34.4988 53.7774 29.0637C54.3531 28.4451 54.7366 27.6725 54.8813 26.8399C55.0259 26.0073 54.9254 25.1506 54.592 24.3741C54.2586 23.5976 53.7066 22.9347 53.0033 22.4662C52.3001 21.9976 51.4757 21.7436 50.6307 21.7351ZM50.6307 33.6679C50.2008 33.6679 49.7885 33.4971 49.4845 33.1931C49.1805 32.8891 49.0097 32.4768 49.0097 32.0469C49.0097 31.6856 48.8662 31.3391 48.6107 31.0837C48.3553 30.8282 48.0088 30.6847 47.6475 30.6847H34.3525C33.9913 30.6847 33.6448 30.8282 33.3893 31.0837C33.1339 31.3391 32.9904 31.6856 32.9904 32.0469C32.9904 32.3675 32.8953 32.6809 32.7172 32.9475C32.539 33.214 32.2859 33.4218 31.9897 33.5445C31.6935 33.6672 31.3675 33.6993 31.0531 33.6367C30.7387 33.5742 30.4498 33.4198 30.2231 33.1931C29.9964 32.9664 29.842 32.6776 29.7795 32.3631C29.7169 32.0487 29.749 31.7227 29.8717 31.4265C29.9944 31.1303 30.2022 30.8772 30.4688 30.6991C30.7353 30.5209 31.0487 30.4259 31.3693 30.4259C31.7306 30.4259 32.0771 30.2823 32.3326 30.0269C32.588 29.7714 32.7315 29.4249 32.7315 29.0637C32.7315 28.7024 32.588 28.3559 32.3326 28.1005C32.0771 27.845 31.7306 27.7015 31.3693 27.7015C31.0487 27.7015 30.7353 27.6064 30.4688 27.4283C30.2022 27.2502 29.9944 26.997 29.8717 26.7008C29.749 26.4046 29.7169 26.0787 29.7795 25.7642C29.842 25.4498 29.9964 25.161 30.2231 24.9343C30.4498 24.7076 30.7387 24.5532 31.0531 24.4906C31.3675 24.4281 31.6935 24.4602 31.9897 24.5829C32.2859 24.7056 32.539 24.9133 32.7172 25.1799C32.8953 25.4465 32.9904 25.7599 32.9904 26.0805C32.9904 26.4418 33.1339 26.7882 33.3893 27.0437C33.6448 27.2992 33.9913 27.4427 34.3525 27.4427H47.6475C48.0088 27.4427 48.3553 27.2992 48.6107 27.0437C48.8662 26.7882 49.0097 26.4418 49.0097 26.0805C49.0097 25.7599 49.1048 25.4465 49.2829 25.1799C49.461 24.9133 49.7142 24.7056 50.0104 24.5829C50.3066 24.4602 50.6325 24.4281 50.947 24.4906C51.2614 24.5532 51.5502 24.7076 51.7769 24.9343C52.0036 25.161 52.158 25.4498 52.2206 25.7642C52.2831 26.0787 52.251 26.4046 52.1283 26.7008C52.0056 26.997 51.7979 27.2502 51.5313 27.4283C51.2647 27.6064 50.9513 27.7015 50.6307 27.7015C50.2694 27.7015 49.923 27.845 49.6675 28.1005C49.412 28.3559 49.2685 28.7024 49.2685 29.0637C49.2685 29.4249 49.412 29.7714 49.6675 30.0269C49.923 30.2823 50.2694 30.4259 50.6307 30.4259C51.0606 30.4259 51.4729 30.5966 51.7769 30.9006C52.0809 31.2046 52.2517 31.617 52.2517 32.0469C52.2517 32.4768 52.0809 32.8891 51.7769 33.1931C51.4729 33.4971 51.0606 33.6679 50.6307 33.6679Z" fill="#AAAAFF" stroke="#AAAAFF" stroke-width="0.5"/>
</g>
</svg>
